<svg id="edmy396i2mo61" xmlns="http://www.w3.org/2000/svg" xmlns:xlink="http://www.w3.org/1999/xlink" viewBox="0 0 39.246000 68.281000" shape-rendering="geometricPrecision" text-rendering="geometricPrecision"><style><![CDATA[#edmy396i2mo67_to {animation: edmy396i2mo67_to__to 2500ms linear infinite normal forwards}@keyframes edmy396i2mo67_to__to { 0% {transform: translate(-2.056134px,60.677396px);animation-timing-function: cubic-bezier(0.420000,0,0.580000,1)} 28% {transform: translate(-2.111088px,51.949914px);animation-timing-function: cubic-bezier(0.420000,0,0.580000,1)} 40% {transform: translate(-1.903380px,4.039675px);animation-timing-function: cubic-bezier(0.420000,0,0.580000,1)} 52% {transform: translate(-2.054339px,-0.273279px);animation-timing-function: cubic-bezier(0.420000,0,0.580000,1)} 68% {transform: translate(-2.054500px,-0.272500px)} 80% {transform: translate(-2.069869px,-2.966508px)} 88% {transform: translate(-2.069869px,64.061000px)} 100% {transform: translate(-2.054500px,60.677500px)} }#edmy396i2mo67 {animation: edmy396i2mo67_c_o 2500ms linear infinite normal forwards}@keyframes edmy396i2mo67_c_o { 0% {opacity: 1;animation-timing-function: cubic-bezier(0.420000,0,0.580000,1)} 12% {opacity: 1} 20% {opacity: 0} 28% {opacity: 0;animation-timing-function: cubic-bezier(0.420000,0,0.580000,1)} 40% {opacity: 0;animation-timing-function: cubic-bezier(0.420000,0,0.580000,1)} 52% {opacity: 1;animation-timing-function: cubic-bezier(0.420000,0,0.580000,1)} 68% {opacity: 1} 80% {opacity: 0} 88% {opacity: 0} 100% {opacity: 1} }#edmy396i2mo610_to {animation: edmy396i2mo610_to__to 2500ms linear infinite normal forwards}@keyframes edmy396i2mo610_to__to { 0% {transform: translate(132.359917px,71.615079px);animation-timing-function: cubic-bezier(0.420000,0,0.580000,1)} 28% {transform: translate(132.424488px,81.174851px);animation-timing-function: cubic-bezier(0.420000,0,0.580000,1)} 40% {transform: translate(132.130059px,125.067236px);animation-timing-function: cubic-bezier(0.420000,0,0.580000,1)} 52% {transform: translate(132.291485px,131.610000px);animation-timing-function: cubic-bezier(0.420000,0,0.580000,1)} 68% {transform: translate(132.289000px,131.612000px)} 80% {transform: translate(132.220586px,135.707500px)} 88% {transform: translate(132.359000px,66.204527px)} 100% {transform: translate(132.359000px,71.612000px)} }#edmy396i2mo610 {animation: edmy396i2mo610_c_o 2500ms linear infinite normal forwards}@keyframes edmy396i2mo610_c_o { 0% {opacity: 1;animation-timing-function: cubic-bezier(0.420000,0,0.580000,1)} 12% {opacity: 1} 20% {opacity: 0} 28% {opacity: 0;animation-timing-function: cubic-bezier(0.420000,0,0.580000,1)} 40% {opacity: 0;animation-timing-function: cubic-bezier(0.420000,0,0.580000,1)} 52% {opacity: 1;animation-timing-function: cubic-bezier(0.420000,0,0.580000,1)} 68% {opacity: 1} 80% {opacity: 0} 88% {opacity: 0} 100% {opacity: 1} }]]></style><g id="edmy396i2mo62" transform="matrix(1 0 0 1 -114.63900000000000 -69.41200000000001)"><path id="edmy396i2mo63" d="M184.520000,108.558000L184.520000,104.044000C184.520000,103.313749,184.130416,102.638969,183.498000,102.273844C182.865584,101.908719,182.086416,101.908719,181.454000,102.273844C180.821584,102.638969,180.432000,103.313749,180.432000,104.044000L180.432000,108.544000L173.890000,108.544000L173.890000,104.044000C173.890000,103.313749,173.500416,102.638969,172.868000,102.273844C172.235584,101.908719,171.456416,101.908719,170.824000,102.273844C170.191584,102.638969,169.802000,103.313749,169.802000,104.044000L169.802000,108.544000L162.035000,108.544000C161.492897,108.544000,160.972998,108.759349,160.589674,109.142674C160.206349,109.525998,159.991000,110.045897,159.991000,110.588000L159.991000,118.764000C159.991000,119.306103,160.206349,119.826002,160.589674,120.209326C160.972998,120.592651,161.492897,120.808000,162.035000,120.808000L164.900000,120.808000L164.900000,146.150000L162.037000,146.150000C161.494897,146.150000,160.974998,146.365349,160.591674,146.748674C160.208349,147.131998,159.993000,147.651897,159.993000,148.194000L159.993000,156.370000C159.993000,156.912103,160.208349,157.432002,160.591674,157.815326C160.974998,158.198651,161.494897,158.414000,162.037000,158.414000L169.800000,158.414000L169.800000,162.914000C169.800000,163.644251,170.189584,164.319031,170.822000,164.684156C171.454416,165.049281,172.233584,165.049281,172.866000,164.684156C173.498416,164.319031,173.888000,163.644251,173.888000,162.914000L173.888000,158.414000L180.430000,158.414000L180.430000,162.914000C180.430000,163.644251,180.819584,164.319031,181.452000,164.684156C182.084416,165.049281,182.863584,165.049281,183.496000,164.684156C184.128416,164.319031,184.518000,163.644251,184.518000,162.914000L184.518000,158.400000C192.744345,158.026619,199.224773,151.253808,199.235000,143.019000C199.245085,139.554845,198.075208,136.190522,195.918000,133.480000C198.075208,130.769478,199.245085,127.405155,199.235000,123.941000C199.226400,115.705952,192.746557,108.931952,184.520000,108.558000ZM191.742000,134.938000C195.032532,138.148546,196.049991,143.032569,194.315220,147.290007C192.580448,151.547444,188.439303,154.329499,183.842000,154.326000L164.082000,154.326000L164.082000,150.238000L166.945000,150.238000C167.487103,150.238000,168.007002,150.022651,168.390326,149.639326C168.773651,149.256002,168.989000,148.736103,168.989000,148.194000L168.989000,118.761000C168.989000,118.218897,168.773651,117.698998,168.390326,117.315674C168.007002,116.932349,167.487103,116.717000,166.945000,116.717000L164.082000,116.717000L164.082000,112.629000L183.842000,112.629000C188.439303,112.625501,192.580448,115.407556,194.315220,119.664993C196.049991,123.922431,195.032532,128.806454,191.742000,132.017000C191.348995,132.401526,191.127481,132.928170,191.127481,133.478000C191.127481,134.027830,191.348995,134.554474,191.742000,134.939000Z" transform="matrix(1 0 0 1 -45.35199731000003 -29.37700781000000)" fill="rgb(255,255,255)" stroke="none" stroke-width="1"/><path id="edmy396i2mo64" d="M232.023000,171.333000L223.042000,171.333000C221.913911,171.334104,220.999999,172.248911,221,173.377000L221,184.823000C221,185.365103,221.215349,185.885002,221.598674,186.268326C221.981998,186.651651,222.501897,186.867000,223.044000,186.867000L232.025000,186.867000C234.799882,186.867000,237.363979,185.386618,238.751420,182.983500C240.138860,180.580382,240.138860,177.619618,238.751420,175.216500C237.363979,172.813382,234.799882,171.333000,232.025000,171.333000ZM232.023000,182.779000L225.086000,182.779000L225.086000,175.421000L232.023000,175.421000C234.054856,175.421000,235.702000,177.068144,235.702000,179.100000C235.702000,181.131856,234.054856,182.779000,232.023000,182.779000Z" transform="matrix(1 0 0 1 -93.88900000000000 -85.19400000000000)" fill="rgb(255,255,255)" stroke="none" stroke-width="1"/><path id="edmy396i2mo65" d="M232.023000,264.667000L223.042000,264.667000C221.913911,264.668104,220.999999,265.582911,221,266.711000L221,278.157000C221,279.285870,221.915130,280.201000,223.044000,280.201000L232.025000,280.201000C234.799882,280.201000,237.363979,278.720618,238.751420,276.317500C240.138860,273.914382,240.138860,270.953618,238.751420,268.550500C237.363979,266.147382,234.799882,264.667000,232.025000,264.667000ZM232.023000,276.113000L225.086000,276.113000L225.086000,268.755000L232.023000,268.755000C233.337380,268.755000,234.551917,269.456213,235.209108,270.594500C235.866298,271.732787,235.866298,273.135213,235.209108,274.273500C234.551917,275.411787,233.337380,276.113000,232.023000,276.113000Z" transform="matrix(1 0 0 1 -93.88900000000000 -159.44999999999999)" fill="rgb(255,255,255)" stroke="none" stroke-width="1"/><g id="edmy396i2mo66" transform="matrix(1 0 0 1 121.61300000000000 71.52200000000001)"><g id="edmy396i2mo67_to" transform="translate(-2.056134,60.677396)"><g id="edmy396i2mo67" transform="translate(2.080500,0.152500)"><line id="edmy396i2mo68" x1="0" y1="3.915000" x2="4.818000" y2="0" fill="none" stroke="rgb(255,255,255)" stroke-width="3" stroke-linecap="round"/><line id="edmy396i2mo69" x1="4.969000" y1="3.915000" x2="0" y2="0" transform="matrix(1 0 0 1 4.81800000000000 0)" fill="none" stroke="rgb(255,255,255)" stroke-width="3" stroke-linecap="round"/></g></g></g><g id="edmy396i2mo610_to" transform="translate(132.359917,71.615079)"><g id="edmy396i2mo610" transform="translate(0,0)"><line id="edmy396i2mo611" x1="0" y1="0" x2="4.818000" y2="3.971000" fill="none" stroke="rgb(255,255,255)" stroke-width="3" stroke-linecap="round"/><line id="edmy396i2mo612" x1="4.969000" y1="0" x2="0" y2="3.971000" transform="matrix(1 0 0 1 4.81800000000000 0)" fill="none" stroke="rgb(255,255,255)" stroke-width="3" stroke-linecap="round"/></g></g></g></svg>