<svg xmlns="http://www.w3.org/2000/svg" width="503.383" height="503.389" viewBox="0 0 503.383 503.389">
  <g id="Grupo_18" data-name="Grupo 18" transform="translate(-708 -288)">
    <path id="Caminho_2" data-name="Caminho 2" d="M429.667,73.719A251.725,251.725,0,0,0,41.984,390.97a9.831,9.831,0,1,0,16.368-10.9C-2.589,288.517,9.72,165.523,87.62,87.625c90.469-90.47,237.674-90.47,328.143,0a232.031,232.031,0,0,1,0,328.143c-81.06,81.061-207.185,91.2-299.893,24.1a9.832,9.832,0,0,0-11.53,15.93,251.582,251.582,0,0,0,147.405,47.593q9.437,0,18.918-.71a251.7,251.7,0,0,0,159-428.96Z" transform="translate(707.997 288)" fill="#fff"/>
    <path id="Caminho_3" data-name="Caminho 3" d="M391.938,130.247a9.831,9.831,0,0,0,6.982-16.755l-.347-.348a9.832,9.832,0,1,0-13.963,13.846l.347.348A9.8,9.8,0,0,0,391.938,130.247Z" transform="translate(701.578 286.147)" fill="#fff"/>
    <path id="Caminho_4" data-name="Caminho 4" d="M357.777,95.494a9.832,9.832,0,0,0-3.4-13.482A199.682,199.682,0,0,0,229.31,55.363a196.563,196.563,0,0,0-117.143,56.808c-77.435,77.436-77.435,203.432,0,280.868a198.633,198.633,0,0,0,310.97-242.309,9.832,9.832,0,1,0-16.873,10.1,178.651,178.651,0,0,1-27.133,218.309c-69.768,69.769-183.292,69.769-253.06,0s-69.769-183.291,0-253.06A178.669,178.669,0,0,1,344.293,98.891,9.833,9.833,0,0,0,357.777,95.494Z" transform="translate(707.087 287.092)" fill="#fff"/>
    <path id="Caminho_8" data-name="Caminho 8" d="M82.225,438.383a9.831,9.831,0,0,0,6.982-16.754l-.347-.348A9.832,9.832,0,1,0,74.9,435.127l.347.348A9.805,9.805,0,0,0,82.225,438.383Z" transform="translate(706.785 280.966)" fill="#fff"/>
  </g>
</svg>
